<?xml version="1.0" encoding="utf-8"?>
<!-- Generator: Adobe Illustrator 18.1.1, SVG Export Plug-In . SVG Version: 6.00 Build 0)  -->
<svg version="1.1" id="Layer_1" xmlns="http://www.w3.org/2000/svg" xmlns:xlink="http://www.w3.org/1999/xlink" x="0px" y="0px"
	 viewBox="0 0 32 32" enable-background="new 0 0 32 32" xml:space="preserve">
<g>
	<g>
		<path d="M3.1,0v28.1C3.1,30.3,4.9,32,7,32h18.3c2.1,0,3.8-1.7,3.8-3.8V0H3.1z M9.5,28.4c0,0.4-0.3,0.6-0.6,0.6H6.7
			c-0.4,0-0.6-0.3-0.6-0.6v-2.1c0-0.4,0.3-0.6,0.6-0.6h2.1c0.4,0,0.6,0.3,0.6,0.6V28.4z M9.5,22.8c0,0.4-0.3,0.6-0.6,0.6H6.7
			c-0.4,0-0.6-0.3-0.6-0.6v-2.1c0-0.4,0.3-0.6,0.6-0.6h2.1c0.4,0,0.6,0.3,0.6,0.6V22.8z M9.5,17.3c0,0.4-0.3,0.6-0.6,0.6H6.7
			c-0.4,0-0.6-0.3-0.6-0.6v-2.1c0-0.4,0.3-0.6,0.6-0.6h2.1c0.4,0,0.6,0.3,0.6,0.6V17.3z M15,28.4c0,0.4-0.3,0.6-0.6,0.6h-2.1
			c-0.4,0-0.6-0.3-0.6-0.6v-2.1c0-0.4,0.3-0.6,0.6-0.6h2.1c0.4,0,0.6,0.3,0.6,0.6V28.4z M15,22.8c0,0.4-0.3,0.6-0.6,0.6h-2.1
			c-0.4,0-0.6-0.3-0.6-0.6v-2.1c0-0.4,0.3-0.6,0.6-0.6h2.1c0.4,0,0.6,0.3,0.6,0.6V22.8z M15,17.3c0,0.4-0.3,0.6-0.6,0.6h-2.1
			c-0.4,0-0.6-0.3-0.6-0.6v-2.1c0-0.4,0.3-0.6,0.6-0.6h2.1c0.4,0,0.6,0.3,0.6,0.6V17.3z M20.6,28.4c0,0.4-0.3,0.6-0.6,0.6h-2.1
			c-0.4,0-0.6-0.3-0.6-0.6v-2.1c0-0.4,0.3-0.6,0.6-0.6H20c0.4,0,0.6,0.3,0.6,0.6V28.4z M20.6,22.8c0,0.4-0.3,0.6-0.6,0.6h-2.1
			c-0.4,0-0.6-0.3-0.6-0.6v-2.1c0-0.4,0.3-0.6,0.6-0.6H20c0.4,0,0.6,0.3,0.6,0.6V22.8z M20.6,17.3c0,0.4-0.3,0.6-0.6,0.6h-2.1
			c-0.4,0-0.6-0.3-0.6-0.6v-2.1c0-0.4,0.3-0.6,0.6-0.6H20c0.4,0,0.6,0.3,0.6,0.6V17.3z M26.2,28.4c0,0.4-0.3,0.6-0.6,0.6h-2.1
			c-0.4,0-0.6-0.3-0.6-0.6v-7.7c0-0.4,0.3-0.6,0.6-0.6h2.1c0.4,0,0.6,0.3,0.6,0.6V28.4z M26.2,17.3c0,0.4-0.3,0.6-0.6,0.6h-2.1
			c-0.4,0-0.6-0.3-0.6-0.6v-2.1c0-0.4,0.3-0.6,0.6-0.6h2.1c0.4,0,0.6,0.3,0.6,0.6V17.3z M27.3,11.6c0,0.6-0.5,1-1,1H6
			c-0.6,0-1-0.5-1-1V3.3c0-0.6,0.5-1,1-1h20.3c0.6,0,1,0.5,1,1V11.6z"/>
	</g>
	<path d="M25.5,7.7c-0.1-0.2-0.3-0.3-0.5-0.4c-0.2-0.1-0.4-0.2-0.6-0.3c-0.2-0.1-0.4-0.1-0.7-0.2l-0.1,0V4.9c0.6,0.1,0.9,0.5,1,1.1
		l0,0.1h1.2l0-0.1c0-0.3-0.1-0.7-0.2-0.9c-0.1-0.3-0.3-0.5-0.6-0.7c-0.2-0.2-0.5-0.3-0.9-0.4c-0.2,0-0.3-0.1-0.5-0.1V3h-1.1v0.8
		c-0.2,0-0.4,0.1-0.5,0.1c-0.3,0.1-0.6,0.2-0.8,0.4c-0.2,0.2-0.4,0.4-0.5,0.6c-0.1,0.3-0.2,0.5-0.2,0.8c0,0.3,0,0.5,0.1,0.7
		c0.1,0.2,0.2,0.4,0.4,0.6c0.2,0.2,0.4,0.3,0.7,0.4c0.2,0.1,0.5,0.2,0.8,0.3V10c0,0,0,0,0,0c-0.2-0.1-0.4-0.1-0.6-0.3
		c-0.2-0.1-0.3-0.3-0.4-0.4c-0.1-0.2-0.2-0.4-0.2-0.6l0-0.1h-1.2l0,0.1c0,0.4,0.1,0.7,0.2,1c0.1,0.3,0.3,0.6,0.6,0.8
		c0.3,0.2,0.6,0.4,1,0.5c0.2,0.1,0.4,0.1,0.6,0.1v0.8h1.1v-0.8c0.2,0,0.5-0.1,0.7-0.1c0.3-0.1,0.6-0.3,0.9-0.4
		c0.2-0.2,0.4-0.4,0.6-0.7C25.9,9.6,26,9.3,26,8.9c0-0.3,0-0.5-0.1-0.7C25.8,8,25.6,7.8,25.5,7.7z M22.5,6.6c-0.1,0-0.1,0-0.2-0.1
		c-0.2-0.1-0.3-0.1-0.5-0.2c-0.1-0.1-0.2-0.1-0.2-0.2c0-0.1-0.1-0.2-0.1-0.3c0-0.3,0.1-0.5,0.4-0.6C22.1,5,22.3,5,22.5,4.9V6.6z
		 M24.7,9.4c-0.1,0.1-0.2,0.2-0.3,0.3c-0.1,0.1-0.3,0.2-0.5,0.2c-0.1,0-0.2,0-0.3,0V8c0,0,0.1,0,0.1,0c0.3,0.1,0.5,0.2,0.6,0.2
		c0.1,0.1,0.3,0.2,0.3,0.3c0.1,0.1,0.1,0.2,0.1,0.4C24.8,9.1,24.8,9.3,24.7,9.4z"/>
	<path d="M11.6,7.7c-0.1-0.2-0.3-0.3-0.5-0.4c-0.2-0.1-0.4-0.2-0.6-0.3C10.3,6.9,10,6.9,9.8,6.8l-0.1,0V4.9c0.6,0.1,0.9,0.5,1,1.1
		l0,0.1h1.2l0-0.1c0-0.3-0.1-0.7-0.2-0.9c-0.1-0.3-0.3-0.5-0.6-0.7c-0.2-0.2-0.5-0.3-0.9-0.4c-0.2,0-0.3-0.1-0.5-0.1V3H8.6v0.8
		c-0.2,0-0.4,0.1-0.5,0.1C7.8,4,7.5,4.2,7.3,4.3C7,4.5,6.8,4.7,6.7,5C6.6,5.2,6.5,5.5,6.5,5.8c0,0.3,0,0.5,0.1,0.7
		c0.1,0.2,0.2,0.4,0.4,0.6c0.2,0.2,0.4,0.3,0.7,0.4c0.2,0.1,0.5,0.2,0.8,0.3V10c0,0,0,0,0,0C8.4,9.9,8.2,9.8,8,9.7
		C7.9,9.6,7.7,9.4,7.6,9.3C7.5,9.1,7.5,8.9,7.4,8.7l0-0.1H6.3l0,0.1c0,0.4,0.1,0.7,0.2,1c0.1,0.3,0.3,0.6,0.6,0.8
		c0.3,0.2,0.6,0.4,1,0.5c0.2,0.1,0.4,0.1,0.6,0.1v0.8h1.1v-0.8c0.2,0,0.5-0.1,0.7-0.1c0.3-0.1,0.6-0.3,0.9-0.4
		c0.2-0.2,0.4-0.4,0.6-0.7c0.1-0.3,0.2-0.6,0.2-0.9c0-0.3,0-0.5-0.1-0.7C11.9,8,11.7,7.8,11.6,7.7z M8.6,6.6c-0.1,0-0.1,0-0.2-0.1
		C8.2,6.4,8.1,6.4,8,6.3C7.9,6.2,7.8,6.2,7.8,6.1c0-0.1-0.1-0.2-0.1-0.3c0-0.3,0.1-0.5,0.4-0.6C8.2,5,8.4,5,8.6,4.9V6.6z M10.8,9.4
		c-0.1,0.1-0.2,0.2-0.3,0.3c-0.1,0.1-0.3,0.2-0.5,0.2c-0.1,0-0.2,0-0.3,0V8c0,0,0.1,0,0.1,0c0.3,0.1,0.5,0.2,0.6,0.2
		c0.1,0.1,0.3,0.2,0.3,0.3c0.1,0.1,0.1,0.2,0.1,0.4C10.9,9.1,10.9,9.3,10.8,9.4z"/>
	<path d="M18.5,7.7c-0.1-0.2-0.3-0.3-0.5-0.4c-0.2-0.1-0.4-0.2-0.6-0.3c-0.2-0.1-0.4-0.1-0.7-0.2l-0.1,0V4.9c0.6,0.1,0.9,0.5,1,1.1
		l0,0.1h1.2l0-0.1c0-0.3-0.1-0.7-0.2-0.9c-0.1-0.3-0.3-0.5-0.6-0.7c-0.2-0.2-0.5-0.3-0.9-0.4c-0.2,0-0.3-0.1-0.5-0.1V3h-1.1v0.8
		c-0.2,0-0.4,0.1-0.5,0.1c-0.3,0.1-0.6,0.2-0.8,0.4C14,4.5,13.8,4.7,13.7,5c-0.1,0.3-0.2,0.5-0.2,0.8c0,0.3,0,0.5,0.1,0.7
		c0.1,0.2,0.2,0.4,0.4,0.6c0.2,0.2,0.4,0.3,0.7,0.4c0.2,0.1,0.5,0.2,0.8,0.3V10c0,0,0,0,0,0c-0.2-0.1-0.4-0.1-0.6-0.3
		c-0.2-0.1-0.3-0.3-0.4-0.4c-0.1-0.2-0.2-0.4-0.2-0.6l0-0.1h-1.2l0,0.1c0,0.4,0.1,0.7,0.2,1c0.1,0.3,0.3,0.6,0.6,0.8
		c0.3,0.2,0.6,0.4,1,0.5c0.2,0.1,0.4,0.1,0.6,0.1v0.8h1.1v-0.8c0.2,0,0.5-0.1,0.7-0.1c0.3-0.1,0.6-0.3,0.9-0.4
		c0.2-0.2,0.4-0.4,0.6-0.7C19,9.6,19,9.3,19,8.9c0-0.3,0-0.5-0.1-0.7C18.8,8,18.7,7.8,18.5,7.7z M15.6,6.6c-0.1,0-0.1,0-0.2-0.1
		c-0.2-0.1-0.3-0.1-0.5-0.2c-0.1-0.1-0.2-0.1-0.2-0.2c0-0.1-0.1-0.2-0.1-0.3c0-0.3,0.1-0.5,0.4-0.6C15.1,5,15.3,5,15.6,4.9V6.6z
		 M17.7,9.4c-0.1,0.1-0.2,0.2-0.3,0.3c-0.1,0.1-0.3,0.2-0.5,0.2c-0.1,0-0.2,0-0.3,0V8c0,0,0.1,0,0.1,0c0.3,0.1,0.5,0.2,0.6,0.2
		c0.1,0.1,0.3,0.2,0.3,0.3c0.1,0.1,0.1,0.2,0.1,0.4C17.8,9.1,17.8,9.3,17.7,9.4z"/>
</g>
</svg>
