<?xml version="1.0" encoding="utf-8"?>
<!-- Generator: Adobe Illustrator 18.1.1, SVG Export Plug-In . SVG Version: 6.00 Build 0)  -->
<svg version="1.1" id="Layer_1" xmlns="http://www.w3.org/2000/svg" xmlns:xlink="http://www.w3.org/1999/xlink" x="0px" y="0px"
	 viewBox="0 0 32 32" enable-background="new 0 0 32 32" xml:space="preserve">
<g>
	<path d="M22.3,16.8c-1.5,2.2-3.7,3.6-6.3,3.6c-2.6,0-4.8-1.4-6.3-3.6c-3.8,1.4-6.4,4.1-6.4,7.1c0,1.4,0.1,2.7,0.3,3.8h24.8
		c0.2-1.1,0.3-2.4,0.3-3.8C28.7,20.8,26.1,18.2,22.3,16.8z"/>
	<g>
		<g>
			<ellipse cx="16" cy="11.2" rx="5.7" ry="6.8"/>
			<g>
				<path d="M24.3,10.8c0,0.3,0,0.7-0.1,1c0.1,0,0.2,0,0.3,0c1.6,0,2.8-1.5,2.8-3.4s-1.3-3.4-2.8-3.4c-0.7,0-1.3,0.3-1.8,0.8
					C23.7,7.1,24.3,8.9,24.3,10.8z"/>
				<path d="M28.2,11.6c-0.9,1.3-2.2,2.1-3.7,2.1c-0.2,0-0.4,0-0.6,0c-0.1,0.3-0.2,0.6-0.3,0.9c2.1,0.9,3.9,2.1,5.2,3.5h2.9
					c0.1-0.7,0.2-1.4,0.2-2.2C32,14,30.4,12.4,28.2,11.6z"/>
				<path d="M7.4,11.8c0.1,0,0.2,0,0.3,0c0-0.3-0.1-0.6-0.1-1c0-1.9,0.6-3.7,1.6-5.1C8.8,5.2,8.1,4.9,7.4,4.9
					c-1.6,0-2.8,1.5-2.8,3.4S5.9,11.8,7.4,11.8z"/>
				<path d="M8.3,14.6c-0.1-0.3-0.2-0.6-0.3-0.9c-0.2,0-0.4,0-0.6,0c-1.5,0-2.8-0.8-3.7-2.1c-2.2,0.8-3.8,2.4-3.8,4.2
					c0,0.8,0.1,1.6,0.2,2.2h2.9C4.5,16.6,6.2,15.4,8.3,14.6z"/>
			</g>
		</g>
	</g>
</g>
</svg>
