<?xml version="1.0" encoding="utf-8"?>
<!-- Generator: Adobe Illustrator 18.1.1, SVG Export Plug-In . SVG Version: 6.00 Build 0)  -->
<svg version="1.1" id="Layer_1" xmlns="http://www.w3.org/2000/svg" xmlns:xlink="http://www.w3.org/1999/xlink" x="0px" y="0px"
	 viewBox="0 0 32 32" enable-background="new 0 0 32 32" xml:space="preserve">
<g>
	<g>
		<path d="M17.6,17.1V32C25.7,31.2,32,24.3,32,16c0-2.3-0.5-4.5-1.3-6.4L17.6,17.1z"/>
		<path d="M16,14.4l13.1-7.6C26.2,2.7,21.4,0,16,0S5.8,2.7,2.9,6.8L16,14.4z"/>
	</g>
	<g>
		<path d="M6.6,29l7.8-7.8v-4.1l-0.6-0.3L4,26.6C4.8,27.5,5.7,28.3,6.6,29z"/>
		<path d="M0.6,20.5C1,21.7,1.5,22.9,2.1,24l8.8-8.8l-3.2-1.8L0.6,20.5z"/>
		<path d="M9.5,30.6c1.5,0.7,3.2,1.1,4.9,1.3v-6.3L9.5,30.6z"/>
		<path d="M4.9,11.7L1.3,9.6C0.5,11.6,0,13.7,0,16c0,0.2,0,0.4,0,0.6L4.9,11.7z"/>
	</g>
</g>
</svg>
